# Blender v2.79 (sub 0) OBJ File: 'sleepingbag.blend'
# www.blender.org
mtllib sleep.mtl
o Cylinder001_Cylinder001Mesh
v -0.266195 0.048590 -0.412590
v -0.266266 0.015006 -0.418397
v -0.267109 0.019777 -0.433913
v -0.267842 0.028023 -0.446858
v -0.268376 0.038750 -0.455669
v -0.268647 0.050664 -0.459284
v -0.268623 0.062327 -0.457267
v -0.268306 0.072334 -0.449861
v -0.267734 0.079477 -0.437960
v -0.266977 0.082895 -0.422999
v -0.266125 0.082175 -0.406782
v -0.265282 0.077404 -0.391266
v -0.264549 0.069158 -0.378322
v -0.264015 0.058431 -0.369511
v -0.263744 0.046517 -0.365896
v -0.263768 0.034854 -0.367913
v -0.264085 0.024847 -0.375318
v -0.264657 0.017704 -0.387219
v -0.265414 0.014286 -0.402181
v -0.231141 0.015249 -0.420231
v -0.231984 0.020020 -0.435747
v -0.232717 0.028266 -0.448691
v -0.233251 0.038993 -0.457502
v -0.233522 0.050907 -0.461117
v -0.233498 0.062571 -0.459100
v -0.233181 0.072578 -0.451695
v -0.232609 0.079721 -0.439793
v -0.231852 0.083139 -0.424832
v -0.231000 0.082419 -0.408616
v -0.230157 0.077648 -0.393100
v -0.229425 0.069402 -0.380155
v -0.228890 0.058675 -0.371344
v -0.228619 0.046761 -0.367729
v -0.228643 0.035097 -0.369746
v -0.228961 0.025090 -0.377152
v -0.229532 0.017947 -0.389053
v -0.230290 0.014529 -0.404014
v -0.196016 0.015493 -0.422064
v -0.196859 0.020264 -0.437580
v -0.197592 0.028510 -0.450524
v -0.198126 0.039237 -0.459335
v -0.198397 0.051151 -0.462950
v -0.198373 0.062814 -0.460934
v -0.198056 0.072821 -0.453528
v -0.197484 0.079964 -0.441627
v -0.196727 0.083382 -0.426666
v -0.195876 0.082662 -0.410449
v -0.195033 0.077891 -0.394933
v -0.194300 0.069645 -0.381989
v -0.193765 0.058918 -0.373178
v -0.193494 0.047004 -0.369563
v -0.193519 0.035341 -0.371580
v -0.193836 0.025334 -0.378985
v -0.194407 0.018191 -0.390886
v -0.195165 0.014773 -0.405847
v -0.160891 0.015736 -0.423897
v -0.161734 0.020507 -0.439414
v -0.162467 0.028753 -0.452358
v -0.163001 0.039480 -0.461169
v -0.163273 0.051394 -0.464784
v -0.163248 0.063058 -0.462767
v -0.162931 0.073065 -0.455361
v -0.162359 0.080208 -0.443460
v -0.161602 0.083626 -0.428499
v -0.160751 0.082906 -0.412282
v -0.159908 0.078135 -0.396766
v -0.159175 0.069889 -0.383822
v -0.158641 0.059162 -0.375011
v -0.158369 0.047248 -0.371396
v -0.158394 0.035584 -0.373413
v -0.158711 0.025577 -0.380819
v -0.159283 0.018434 -0.392720
v -0.160040 0.015016 -0.407681
v -0.125766 0.015980 -0.425731
v -0.126609 0.020751 -0.441247
v -0.127342 0.028997 -0.454191
v -0.127877 0.039724 -0.463002
v -0.128148 0.051638 -0.466617
v -0.128123 0.063301 -0.464600
v -0.127806 0.073308 -0.457195
v -0.127235 0.080451 -0.445294
v -0.126477 0.083869 -0.430332
v -0.125626 0.083149 -0.414116
v -0.124783 0.078378 -0.398600
v -0.124050 0.070132 -0.385656
v -0.123516 0.059405 -0.376844
v -0.123245 0.047491 -0.373229
v -0.123269 0.035828 -0.375246
v -0.123586 0.025821 -0.382652
v -0.124158 0.018678 -0.394553
v -0.124915 0.015260 -0.409514
v -0.090642 0.016223 -0.427564
v -0.091485 0.020994 -0.443080
v -0.092217 0.029240 -0.456024
v -0.092752 0.039967 -0.464835
v -0.093023 0.051881 -0.468451
v -0.092999 0.063545 -0.466434
v -0.092681 0.073552 -0.459028
v -0.092110 0.080695 -0.447127
v -0.091352 0.084113 -0.432166
v -0.090501 0.083393 -0.415949
v -0.089658 0.078622 -0.400433
v -0.088925 0.070376 -0.387489
v -0.088391 0.059649 -0.378678
v -0.088120 0.047735 -0.375063
v -0.088144 0.036071 -0.377080
v -0.088461 0.026064 -0.384485
v -0.089033 0.018921 -0.396386
v -0.089790 0.015503 -0.411347
v -0.090571 0.049808 -0.421757
vt 0.500000 0.000000
vt 0.805556 0.000000
vt 0.750000 0.000000
vt 0.861111 0.000000
vt 0.916667 0.000000
vt 0.972222 0.000000
vt 0.027778 0.000000
vt -0.027778 0.000000
vt 0.083333 0.000000
vt 0.138889 0.000000
vt 0.194444 0.000000
vt 0.250000 0.000000
vt 0.305556 0.000000
vt 0.361111 0.000000
vt 0.416667 0.000000
vt 0.472222 0.000000
vt 0.527778 0.000000
vt 0.583333 0.000000
vt 0.638889 0.000000
vt 0.694444 0.000000
vt 0.500000 1.000000
vt 0.750000 1.000000
vt 0.805556 1.000000
vt 0.861111 1.000000
vt 0.916667 1.000000
vt 0.972222 1.000000
vt -0.027778 1.000000
vt 0.027778 1.000000
vt 0.083333 1.000000
vt 0.138889 1.000000
vt 0.194444 1.000000
vt 0.250000 1.000000
vt 0.305556 1.000000
vt 0.361111 1.000000
vt 0.416667 1.000000
vt 0.472222 1.000000
vt 0.527778 1.000000
vt 0.583333 1.000000
vt 0.638889 1.000000
vt 0.694444 1.000000
vt 0.805556 0.200000
vt 0.750000 0.200000
vt 0.861111 0.200000
vt 0.916667 0.200000
vt 0.972222 0.200000
vt 0.027778 0.200000
vt -0.027778 0.200000
vt 0.083333 0.200000
vt 0.138889 0.200000
vt 0.194444 0.200000
vt 0.250000 0.200000
vt 0.305556 0.200000
vt 0.361111 0.200000
vt 0.416667 0.200000
vt 0.472222 0.200000
vt 0.527778 0.200000
vt 0.583333 0.200000
vt 0.638889 0.200000
vt 0.694444 0.200000
vt 0.805556 0.400000
vt 0.750000 0.400000
vt 0.861111 0.400000
vt 0.916667 0.400000
vt 0.972222 0.400000
vt 0.027778 0.400000
vt -0.027778 0.400000
vt 0.083333 0.400000
vt 0.138889 0.400000
vt 0.194444 0.400000
vt 0.250000 0.400000
vt 0.305556 0.400000
vt 0.361111 0.400000
vt 0.416667 0.400000
vt 0.472222 0.400000
vt 0.527778 0.400000
vt 0.583333 0.400000
vt 0.638889 0.400000
vt 0.694444 0.400000
vt 0.805556 0.600000
vt 0.750000 0.600000
vt 0.861111 0.600000
vt 0.916667 0.600000
vt 0.972222 0.600000
vt 0.027778 0.600000
vt -0.027778 0.600000
vt 0.083333 0.600000
vt 0.138889 0.600000
vt 0.194444 0.600000
vt 0.250000 0.600000
vt 0.305556 0.600000
vt 0.361111 0.600000
vt 0.416667 0.600000
vt 0.472222 0.600000
vt 0.527778 0.600000
vt 0.583333 0.600000
vt 0.638889 0.600000
vt 0.694444 0.600000
vt 0.805556 0.800000
vt 0.750000 0.800000
vt 0.861111 0.800000
vt 0.916667 0.800000
vt 0.972222 0.800000
vt 0.027778 0.800000
vt -0.027778 0.800000
vt 0.083333 0.800000
vt 0.138889 0.800000
vt 0.194444 0.800000
vt 0.250000 0.800000
vt 0.305556 0.800000
vt 0.361111 0.800000
vt 0.416667 0.800000
vt 0.472222 0.800000
vt 0.527778 0.800000
vt 0.583333 0.800000
vt 0.638889 0.800000
vt 0.694444 0.800000
vn -0.9986 -0.0069 0.0521
vn 0.9986 0.0069 -0.0521
vn -0.6803 -0.7274 -0.0895
vn -0.0155 -0.9080 -0.4186
vn -0.0020 -0.9854 -0.1704
vn -0.6887 -0.6720 -0.2723
vn -0.0294 -0.7489 -0.6620
vn -0.6941 -0.5583 -0.4543
vn -0.0427 -0.4723 -0.8804
vn -0.6966 -0.3570 -0.6223
vn -0.0516 -0.0620 -0.9967
vn -0.6965 -0.0512 -0.7157
vn -0.0506 0.3934 -0.9180
vn -0.6958 0.2914 -0.6564
vn -0.0401 0.7407 -0.6706
vn -0.6947 0.5481 -0.4658
vn -0.0258 0.9278 -0.3721
vn -0.6915 0.6813 -0.2400
vn -0.0116 0.9959 -0.0894
vn -0.6857 0.7272 -0.0303
vn 0.0020 0.9854 0.1704
vn -0.6773 0.7180 0.1604
vn 0.0155 0.9080 0.4186
vn -0.6658 0.6626 0.3430
vn 0.0294 0.7489 0.6620
vn -0.6507 0.5490 0.5246
vn 0.0427 0.4723 0.8804
vn -0.6329 0.3478 0.6917
vn 0.0516 0.0620 0.9967
vn -0.6189 0.0421 0.7844
vn 0.0506 -0.3934 0.9180
vn -0.6196 -0.3005 0.7251
vn 0.0401 -0.7407 0.6706
vn -0.6348 -0.5573 0.5351
vn 0.0258 -0.9278 0.3721
vn -0.6533 -0.6906 0.3102
vn 0.0116 -0.9959 0.0894
vn -0.6687 -0.7366 0.1010
vn 0.6658 -0.6626 -0.3430
vn 0.6773 -0.7180 -0.1604
vn 0.6507 -0.5490 -0.5246
vn 0.6329 -0.3478 -0.6917
vn 0.6189 -0.0421 -0.7844
vn 0.6196 0.3005 -0.7251
vn 0.6348 0.5573 -0.5351
vn 0.6533 0.6906 -0.3102
vn 0.6687 0.7366 -0.1010
vn 0.6803 0.7274 0.0895
vn 0.6887 0.6720 0.2723
vn 0.6941 0.5583 0.4543
vn 0.6966 0.3570 0.6223
vn 0.6965 0.0512 0.7157
vn 0.6958 -0.2914 0.6564
vn 0.6947 -0.5481 0.4658
vn 0.6915 -0.6813 0.2400
vn 0.6857 -0.7272 0.0303
usemtl Material.001
s off
f 1/1/1 3/2/1 2/3/1
f 1/1/1 4/4/1 3/2/1
f 1/1/1 5/5/1 4/4/1
f 1/1/1 6/6/1 5/5/1
f 1/1/1 7/7/1 6/8/1
f 1/1/1 8/9/1 7/7/1
f 1/1/1 9/10/1 8/9/1
f 1/1/1 10/11/1 9/10/1
f 1/1/1 11/12/1 10/11/1
f 1/1/1 12/13/1 11/12/1
f 1/1/1 13/14/1 12/13/1
f 1/1/1 14/15/1 13/14/1
f 1/1/1 15/16/1 14/15/1
f 1/1/1 16/17/1 15/16/1
f 1/1/1 17/18/1 16/17/1
f 1/1/1 18/19/1 17/18/1
f 1/1/1 19/20/1 18/19/1
f 1/1/1 2/3/1 19/20/1
f 110/21/2 92/22/2 93/23/2
f 110/21/2 93/23/2 94/24/2
f 110/21/2 94/24/2 95/25/2
f 110/21/2 95/25/2 96/26/2
f 110/21/2 96/27/2 97/28/2
f 110/21/2 97/28/2 98/29/2
f 110/21/2 98/29/2 99/30/2
f 110/21/2 99/30/2 100/31/2
f 110/21/2 100/31/2 101/32/2
f 110/21/2 101/32/2 102/33/2
f 110/21/2 102/33/2 103/34/2
f 110/21/2 103/34/2 104/35/2
f 110/21/2 104/35/2 105/36/2
f 110/21/2 105/36/2 106/37/2
f 110/21/2 106/37/2 107/38/2
f 110/21/2 107/38/2 108/39/2
f 110/21/2 108/39/2 109/40/2
f 110/21/2 109/40/2 92/22/2
s 1
f 2/3/3 21/41/4 20/42/5
f 2/3/3 3/2/6 21/41/4
f 3/2/6 22/43/7 21/41/4
f 3/2/6 4/4/8 22/43/7
f 4/4/8 23/44/9 22/43/7
f 4/4/8 5/5/10 23/44/9
f 5/5/10 24/45/11 23/44/9
f 5/5/10 6/6/12 24/45/11
f 6/8/12 25/46/13 24/47/11
f 6/8/12 7/7/14 25/46/13
f 7/7/14 26/48/15 25/46/13
f 7/7/14 8/9/16 26/48/15
f 8/9/16 27/49/17 26/48/15
f 8/9/16 9/10/18 27/49/17
f 9/10/18 28/50/19 27/49/17
f 9/10/18 10/11/20 28/50/19
f 10/11/20 29/51/21 28/50/19
f 10/11/20 11/12/22 29/51/21
f 11/12/22 30/52/23 29/51/21
f 11/12/22 12/13/24 30/52/23
f 12/13/24 31/53/25 30/52/23
f 12/13/24 13/14/26 31/53/25
f 13/14/26 32/54/27 31/53/25
f 13/14/26 14/15/28 32/54/27
f 14/15/28 33/55/29 32/54/27
f 14/15/28 15/16/30 33/55/29
f 15/16/30 34/56/31 33/55/29
f 15/16/30 16/17/32 34/56/31
f 16/17/32 35/57/33 34/56/31
f 16/17/32 17/18/34 35/57/33
f 17/18/34 36/58/35 35/57/33
f 17/18/34 18/19/36 36/58/35
f 18/19/36 37/59/37 36/58/35
f 18/19/36 19/20/38 37/59/37
f 19/20/38 20/42/5 37/59/37
f 19/20/38 2/3/3 20/42/5
f 20/42/5 39/60/4 38/61/5
f 20/42/5 21/41/4 39/60/4
f 21/41/4 40/62/7 39/60/4
f 21/41/4 22/43/7 40/62/7
f 22/43/7 41/63/9 40/62/7
f 22/43/7 23/44/9 41/63/9
f 23/44/9 42/64/11 41/63/9
f 23/44/9 24/45/11 42/64/11
f 24/47/11 43/65/13 42/66/11
f 24/47/11 25/46/13 43/65/13
f 25/46/13 44/67/15 43/65/13
f 25/46/13 26/48/15 44/67/15
f 26/48/15 45/68/17 44/67/15
f 26/48/15 27/49/17 45/68/17
f 27/49/17 46/69/19 45/68/17
f 27/49/17 28/50/19 46/69/19
f 28/50/19 47/70/21 46/69/19
f 28/50/19 29/51/21 47/70/21
f 29/51/21 48/71/23 47/70/21
f 29/51/21 30/52/23 48/71/23
f 30/52/23 49/72/25 48/71/23
f 30/52/23 31/53/25 49/72/25
f 31/53/25 50/73/27 49/72/25
f 31/53/25 32/54/27 50/73/27
f 32/54/27 51/74/29 50/73/27
f 32/54/27 33/55/29 51/74/29
f 33/55/29 52/75/31 51/74/29
f 33/55/29 34/56/31 52/75/31
f 34/56/31 53/76/33 52/75/31
f 34/56/31 35/57/33 53/76/33
f 35/57/33 54/77/35 53/76/33
f 35/57/33 36/58/35 54/77/35
f 36/58/35 55/78/37 54/77/35
f 36/58/35 37/59/37 55/78/37
f 37/59/37 38/61/5 55/78/37
f 37/59/37 20/42/5 38/61/5
f 38/61/5 57/79/4 56/80/5
f 38/61/5 39/60/4 57/79/4
f 39/60/4 58/81/7 57/79/4
f 39/60/4 40/62/7 58/81/7
f 40/62/7 59/82/9 58/81/7
f 40/62/7 41/63/9 59/82/9
f 41/63/9 60/83/11 59/82/9
f 41/63/9 42/64/11 60/83/11
f 42/66/11 61/84/13 60/85/11
f 42/66/11 43/65/13 61/84/13
f 43/65/13 62/86/15 61/84/13
f 43/65/13 44/67/15 62/86/15
f 44/67/15 63/87/17 62/86/15
f 44/67/15 45/68/17 63/87/17
f 45/68/17 64/88/19 63/87/17
f 45/68/17 46/69/19 64/88/19
f 46/69/19 65/89/21 64/88/19
f 46/69/19 47/70/21 65/89/21
f 47/70/21 66/90/23 65/89/21
f 47/70/21 48/71/23 66/90/23
f 48/71/23 67/91/25 66/90/23
f 48/71/23 49/72/25 67/91/25
f 49/72/25 68/92/27 67/91/25
f 49/72/25 50/73/27 68/92/27
f 50/73/27 69/93/29 68/92/27
f 50/73/27 51/74/29 69/93/29
f 51/74/29 70/94/31 69/93/29
f 51/74/29 52/75/31 70/94/31
f 52/75/31 71/95/33 70/94/31
f 52/75/31 53/76/33 71/95/33
f 53/76/33 72/96/35 71/95/33
f 53/76/33 54/77/35 72/96/35
f 54/77/35 73/97/37 72/96/35
f 54/77/35 55/78/37 73/97/37
f 55/78/37 56/80/5 73/97/37
f 55/78/37 38/61/5 56/80/5
f 56/80/5 75/98/4 74/99/5
f 56/80/5 57/79/4 75/98/4
f 57/79/4 76/100/7 75/98/4
f 57/79/4 58/81/7 76/100/7
f 58/81/7 77/101/9 76/100/7
f 58/81/7 59/82/9 77/101/9
f 59/82/9 78/102/11 77/101/9
f 59/82/9 60/83/11 78/102/11
f 60/85/11 79/103/13 78/104/11
f 60/85/11 61/84/13 79/103/13
f 61/84/13 80/105/15 79/103/13
f 61/84/13 62/86/15 80/105/15
f 62/86/15 81/106/17 80/105/15
f 62/86/15 63/87/17 81/106/17
f 63/87/17 82/107/19 81/106/17
f 63/87/17 64/88/19 82/107/19
f 64/88/19 83/108/21 82/107/19
f 64/88/19 65/89/21 83/108/21
f 65/89/21 84/109/23 83/108/21
f 65/89/21 66/90/23 84/109/23
f 66/90/23 85/110/25 84/109/23
f 66/90/23 67/91/25 85/110/25
f 67/91/25 86/111/27 85/110/25
f 67/91/25 68/92/27 86/111/27
f 68/92/27 87/112/29 86/111/27
f 68/92/27 69/93/29 87/112/29
f 69/93/29 88/113/31 87/112/29
f 69/93/29 70/94/31 88/113/31
f 70/94/31 89/114/33 88/113/31
f 70/94/31 71/95/33 89/114/33
f 71/95/33 90/115/35 89/114/33
f 71/95/33 72/96/35 90/115/35
f 72/96/35 91/116/37 90/115/35
f 72/96/35 73/97/37 91/116/37
f 73/97/37 74/99/5 91/116/37
f 73/97/37 56/80/5 74/99/5
f 74/99/5 93/23/39 92/22/40
f 74/99/5 75/98/4 93/23/39
f 75/98/4 94/24/41 93/23/39
f 75/98/4 76/100/7 94/24/41
f 76/100/7 95/25/42 94/24/41
f 76/100/7 77/101/9 95/25/42
f 77/101/9 96/26/43 95/25/42
f 77/101/9 78/102/11 96/26/43
f 78/104/11 97/28/44 96/27/43
f 78/104/11 79/103/13 97/28/44
f 79/103/13 98/29/45 97/28/44
f 79/103/13 80/105/15 98/29/45
f 80/105/15 99/30/46 98/29/45
f 80/105/15 81/106/17 99/30/46
f 81/106/17 100/31/47 99/30/46
f 81/106/17 82/107/19 100/31/47
f 82/107/19 101/32/48 100/31/47
f 82/107/19 83/108/21 101/32/48
f 83/108/21 102/33/49 101/32/48
f 83/108/21 84/109/23 102/33/49
f 84/109/23 103/34/50 102/33/49
f 84/109/23 85/110/25 103/34/50
f 85/110/25 104/35/51 103/34/50
f 85/110/25 86/111/27 104/35/51
f 86/111/27 105/36/52 104/35/51
f 86/111/27 87/112/29 105/36/52
f 87/112/29 106/37/53 105/36/52
f 87/112/29 88/113/31 106/37/53
f 88/113/31 107/38/54 106/37/53
f 88/113/31 89/114/33 107/38/54
f 89/114/33 108/39/55 107/38/54
f 89/114/33 90/115/35 108/39/55
f 90/115/35 109/40/56 108/39/55
f 90/115/35 91/116/37 109/40/56
f 91/116/37 92/22/40 109/40/56
f 91/116/37 74/99/5 92/22/40
o Box001_Box001Mesh
v -0.295517 -0.000000 0.106396
v -0.057864 -0.000000 0.106396
v -0.295517 0.000000 -0.491170
v -0.057864 0.000000 -0.491170
v -0.295517 0.028822 0.106396
v -0.057864 0.028822 0.106396
v -0.295517 0.028822 -0.491170
v -0.057864 0.028822 -0.491170
vt 0.000000 1.000000
vt 0.000000 0.000000
vt 1.000000 0.000000
vt 1.000000 1.000000
vt 0.000000 1.000000
vt 0.000000 0.000000
vt 1.000000 1.000000
vt 1.000000 0.000000
vt 1.000000 1.000000
vt 0.000000 1.000000
vt 0.000000 0.000000
vt 1.000000 0.000000
vt 0.000000 1.000000
vt 1.000000 0.000000
vt 1.000000 1.000000
vt 0.000000 1.000000
vt 0.000000 0.000000
vt 1.000000 0.000000
vt 1.000000 1.000000
vt 0.000000 0.000000
vn 0.0000 -1.0000 -0.0000
vn 0.0000 1.0000 0.0000
vn 0.0000 0.0000 1.0000
vn 1.0000 0.0000 0.0000
vn 0.0000 0.0000 -1.0000
vn -1.0000 0.0000 0.0000
usemtl Material.002
s off
f 114/117/57 112/118/57 111/119/57
f 111/119/57 113/120/57 114/117/57
f 117/121/58 115/122/58 118/123/58
f 118/123/58 115/122/58 116/124/58
f 116/125/59 115/126/59 111/127/59
f 116/125/59 111/127/59 112/128/59
f 118/123/60 116/129/60 112/118/60
f 118/123/60 112/118/60 114/130/60
f 117/131/61 118/132/61 114/133/61
f 117/131/61 114/133/61 113/134/61
f 115/135/62 117/121/62 113/136/62
f 115/135/62 113/136/62 111/119/62
